<?xml version="1.0" encoding="utf-8"?>
<!-- Generator: Adobe Illustrator 24.1.2, SVG Export Plug-In . SVG Version: 6.00 Build 0)  -->
<svg version="1.1" id="Capa_1" xmlns="http://www.w3.org/2000/svg" xmlns:xlink="http://www.w3.org/1999/xlink" x="0px" y="0px"
	 viewBox="0 0 584.6 483" style="enable-background:new 0 0 584.6 483;" xml:space="preserve">
<style type="text/css">
	.st0{fill:none;stroke:#FFFFFF;stroke-width:5;stroke-miterlimit:10;}
	.st1{fill:none;stroke:#FFFFFF;stroke-width:5;stroke-linecap:round;stroke-linejoin:round;stroke-miterlimit:10;}
	.st2{fill:none;stroke:#FFFFFF;stroke-width:12;stroke-linecap:round;stroke-linejoin:round;stroke-miterlimit:10;}
</style>
<path class="st0" d="M530.5,459.7H51.8c-16.3,0-29.5-13.2-29.5-29.5V46.1c0-16.3,13.2-29.5,29.5-29.5h478.7
	c16.3,0,29.5,13.2,29.5,29.5v384.1C560.1,446.5,546.8,459.7,530.5,459.7z"/>
<line class="st0" x1="22.3" y1="90.1" x2="560.1" y2="90.1"/>
<rect x="447.8" y="39.8" class="st0" width="29.7" height="29.7"/>
<line class="st1" x1="532.2" y1="39.8" x2="502.5" y2="69.5"/>
<line class="st1" x1="502.5" y1="39.8" x2="532.2" y2="70.7"/>
<line class="st1" x1="392.4" y1="54.6" x2="422.1" y2="54.6"/>
<circle class="st2" cx="291.2" cy="280.8" r="115.8"/>
<line class="st2" x1="345" y1="227" x2="237.4" y2="334.6"/>
<line class="st2" x1="237.4" y1="227" x2="345" y2="334.6"/>
</svg>
