<svg id="Layer_1" data-name="Layer 1" xmlns="http://www.w3.org/2000/svg" viewBox="0 0 1112 1080"><defs><style>.cls-1{fill:#f26c74;}.cls-2{fill:#ffcb78;}.cls-3{fill:#34bcaf;}.cls-4{fill:#257c9d;}</style></defs><title>2</title><path class="cls-1" d="M572.09,84.16s24.41-65.1,105.77-65.1,89.51,70.52,90.87,90.86-1.36,82.73-85.44,166.81c0,0-84.08,70.52-67.81,122s70.52,94.93,65.1,119.34S669.73,727,669.73,727H517.84s-27.12-276.65-32.55-301.06S435.11,373,462.24,318.77s66.45-36.62,89.5-48.82,32.55-24.41,29.84-65.1S554.46,120.77,572.09,84.16Z"/><path class="cls-2" d="M629,746s-48.82-46.11-29.83-192.58c0,0,4.07-66.45,66.45-88.15,0,0,35.26-8.13,46.11-59.67,0,0,16.27-94.93,100.35-81.37s47.47,96.29,40.69,108.5-24.41,27.12-81.37,59.67-50.18,82.72-48.82,94.93,19,38,16.27,78.65-13.56,62.39-13.56,62.39Z"/><path class="cls-3" d="M238.47,390.65s-8.13,57,59.67,78.65,63.74,17.63,85.44,28.48,46.11,32.55,40.69,84.08,10.84,103.07,46.1,135.62,54.25,29.83,54.25,29.83,43.4-135.61,40.68-198-21.69-127.47-116.62-132.9S355.1,352.67,332.05,335C325.27,328.26,250.68,297.07,238.47,390.65Z"/><path class="cls-4" d="M786.36,693.93a18.5,18.5,0,0,0-18.5-18.49H419.71a18.49,18.49,0,0,0-18.5,18.49v199a18.52,18.52,0,0,0,.9,5.69,114.54,114.54,0,0,0-.9,14.16c0,81.64,86.22,147.82,192.57,147.82S786.36,994.4,786.36,912.76a116.51,116.51,0,0,0-.9-14.16,18.52,18.52,0,0,0,.9-5.69Z"/></svg>