<svg id="Layer_1" data-name="Layer 1" xmlns="http://www.w3.org/2000/svg" viewBox="0 0 1112 1080"><defs><style>.cls-1{fill:#32bcaf;}.cls-2{fill:none;stroke:#32bcaf;stroke-linecap:round;stroke-miterlimit:10;stroke-width:26px;}.cls-3{fill:#fef5e4;}</style></defs><title>6</title><path class="cls-1" d="M963,762.37H357.8L490.71,348.28a43.48,43.48,0,0,1,41.38-30.18H1046a43.47,43.47,0,0,1,41.38,56.75Z"/><line class="cls-2" x1="478.46" y1="749.57" x2="25.06" y2="749.57"/><path class="cls-3" d="M775.73,547.55c1.72-11.88,10-21.79,19.52-24.15-3.15-14.94-13.51-23.9-33.53-18.81-24.89-9.15-44.89,15.29-48.76,42.05s16,65.81,37.1,43.87c9.93,14.72,26.31,0,36.57-19.36C778.79,568.07,774.13,558.67,775.73,547.55Z"/><path class="cls-3" d="M761.1,498.65c-.05,0-.07.05-.06.07S761.07,498.71,761.1,498.65Z"/><path class="cls-3" d="M783.73,484.89c8.79-6.53.3-13.46-8.49-6.93-8.2,6.09-11,14.35-11.57,15.21C764.8,492.74,775.52,491,783.73,484.89Z"/></svg>