<svg id="Layer_1" data-name="Layer 1" xmlns="http://www.w3.org/2000/svg" viewBox="0 0 1112 1080"><defs><style>.cls-1{fill:#151b2d;}.cls-2{fill:#f26c74;}.cls-3{fill:#fbced0;}.cls-4{fill:none;stroke:#151b2d;stroke-linecap:round;stroke-linejoin:round;stroke-width:7px;}</style></defs><title>7</title><path class="cls-1" d="M736.94,310.66c-6.4-17.61-8-112.39-36.82-153.87A163.36,163.36,0,0,0,418.83,134h0s-35.75,37.36-43.75,93.4-57.65,108.88-57.65,108.88-65.64,67.25-8,171.32c0,0,32,83.26,12.81,147.31h417.9S815.4,549.23,815.4,485.19,743.35,328.27,736.94,310.66Z"/><path class="cls-2" d="M735.81,600.47a287.38,287.38,0,0,0-379.27.4c-17.88,12.81-170.83,130-164.8,386.28,6.75,9.46,10.09,31.43,141.56,39.05l.15.18,5.73.14c23.15,1.23,50.09,2,81.53,2.27l0-.3,276.17,6.68v.14c217.27-14.77,218.72-43.74,226-55.41C913.28,721.19,751.67,610.71,735.81,600.47Z"/><path class="cls-3" d="M666.49,253a33.65,33.65,0,0,0-10,1.51c-17.89-59.41-58-100.79-104.49-100.79s-86.6,41.38-104.5,100.79a33.63,33.63,0,1,0-10,65.74h0c0,1.34,0,2.67,0,4,0,73.66,31.36,136.41,75.27,160.25,1.31,9.55,2.35,21.22,1.59,31.09-1.6,20.81-22.42,33.62-22.42,33.62s17.62,30.43,60.85,30.43,60.84-30.43,60.84-30.43-28.82-9.6-28.82-33.62a161.15,161.15,0,0,1,3.11-29.4c45.62-22.44,78.55-86.46,78.55-161.94,0-1.34,0-2.67,0-4h0a33.63,33.63,0,1,0,0-67.25Z"/><path class="cls-4" d="M564,273.83s-11.21,56,14.41,102.48c0,0-4.81,8-35.23,9.6"/><circle class="cls-1" cx="514.38" cy="293.05" r="10.41"/><circle class="cls-1" cx="604.04" cy="293.05" r="10.41"/><path class="cls-4" d="M521.46,403.31s13.5,27.45,40.38,15.46"/><circle class="cls-1" cx="418.31" cy="104.11" r="58.44"/><circle class="cls-1" cx="680.9" cy="104.11" r="58.44"/><path class="cls-3" d="M824.21,897.49a44.07,44.07,0,0,0-4.91-1.43c-30.57-11.58-85.29-12.62-120.84-5.3C648.66,901,670,1004.52,719.77,994.26c15.66-3.22,34.11-9.41,51.85-17.26,45.13,12.48,96.39,20.21,103.92-.75C885.42,948.79,872.05,914.69,824.21,897.49Z"/><path class="cls-4" d="M673.7,900.69s-164.92-22.42-277-8c0,0,33.63-72.06,38.43-124.9"/><path class="cls-4" d="M543.54,496.21s64.14,6.49,90.2-46"/><path class="cls-1" d="M703.32,218.59c0-26.3-22.84-47.73-51.44-48.78,9.23-5.54,14.61-12.16,14.61-19.27,0-19.45-40.14-35.22-89.67-35.22-22.34,0-42.77,3.22-58.47,8.53,1.46-15-.49-21.34-24.79-21.34-36.69,0-75.25,48.16-75.25,84.86S390.42,245,427.12,245a45.62,45.62,0,0,0,11.69-1.67L436.72,249s59.21-2.69,75.69-67c25.06,37.06,66,65,151.68,68.66,3.66.65,8.89-.8,12-.8C705.72,249.82,703.32,245.56,703.32,218.59Z"/></svg>