<svg id="Layer_2" data-name="Layer 2" xmlns="http://www.w3.org/2000/svg" viewBox="0 0 1920 1080"><defs><style>.cls-1{fill:#227c9d;}.cls-10,.cls-12,.cls-14,.cls-2,.cls-7{fill:none;stroke-linecap:round;}.cls-11,.cls-2{stroke:#fef5e3;}.cls-10,.cls-12,.cls-14,.cls-2{stroke-linejoin:round;}.cls-10,.cls-11,.cls-2{stroke-width:5px;}.cls-3{fill:#fe6d73;}.cls-11,.cls-4{fill:#ffcb77;}.cls-5{fill:#18c3b2;}.cls-6{fill:#17c2b1;}.cls-7{stroke:#17c2b1;stroke-width:15px;}.cls-11,.cls-7{stroke-miterlimit:10;}.cls-8{fill:#fef5e3;}.cls-9{fill:#feced0;}.cls-10{stroke:#161c2e;}.cls-12,.cls-14{stroke:#151b2d;}.cls-12{stroke-width:8px;}.cls-13{fill:#151b2d;}.cls-14{stroke-width:4px;}</style></defs><path class="cls-1" d="M1549.71,626H1395.29A13.29,13.29,0,0,0,1382,639.29v45.42A13.29,13.29,0,0,0,1395.29,698H1520c4.66,7.33,14.68,16,36,16,0,0-9.15-3.93-12.65-16h6.36A13.29,13.29,0,0,0,1563,684.71V639.29A13.29,13.29,0,0,0,1549.71,626Z"/><line class="cls-2" x1="1409.5" y1="647.5" x2="1535.5" y2="647.5"/><line class="cls-2" x1="1409.5" y1="662.5" x2="1535.5" y2="662.5"/><line class="cls-2" x1="1409.5" y1="677.5" x2="1479.5" y2="677.5"/><path class="cls-3" d="M736,648s9-24,39-24,33,26,33.5,33.5S808,688,777,719c0,0-31,26-25,45s26,35,24,44-4,77-4,77H716s-10-102-12-111-18.5-19.5-8.5-39.5,24.5-13.5,33-18,12-9,11-24S729.5,661.5,736,648Z"/><path class="cls-4" d="M757,892s-18-17-11-71c0,0,1.5-24.5,24.5-32.5,0,0,13-3,17-22,0,0,6-35,37-30s17.5,35.5,15,40-9,10-30,22-18.5,30.5-18,35,7,14,6,29-5,23-5,23Z"/><path class="cls-5" d="M613,761s-3,21,22,29,23.5,6.5,31.5,10.5,17,12,15,31,4,38,17,50,20,11,20,11,16-50,15-73-8-47-43-49-34.5-23.5-43-30C645,738,617.5,726.5,613,761Z"/><path class="cls-1" d="M815,872.82a6.82,6.82,0,0,0-6.82-6.82H679.82a6.82,6.82,0,0,0-6.82,6.82v73.36a6.94,6.94,0,0,0,.33,2.1,43,43,0,0,0-.33,5.22c0,30.1,31.79,54.5,71,54.5s71-24.4,71-54.5a43,43,0,0,0-.33-5.22,6.94,6.94,0,0,0,.33-2.1Z"/><path class="cls-6" d="M1723,1009H1392l72.7-226.49A23.78,23.78,0,0,1,1487.34,766H1768.4A23.77,23.77,0,0,1,1791,797Z"/><line class="cls-7" x1="1458" y1="1002" x2="1210" y2="1002"/><path class="cls-8" d="M1620.6,891.5c.94-6.5,5.48-11.92,10.68-13.21-1.73-8.17-7.4-13.07-18.35-10.29-13.61-5-24.55,8.36-26.66,23s8.72,36,20.28,24c5.44,8,14.4,0,20-10.59C1622.27,902.72,1619.72,897.58,1620.6,891.5Z"/><path class="cls-8" d="M1612.59,864.75s0,0,0,0S1612.58,864.78,1612.59,864.75Z"/><path class="cls-8" d="M1625,857.23c4.81-3.57.17-7.37-4.64-3.8a20.78,20.78,0,0,0-6.33,8.32C1614.62,861.52,1620.49,860.56,1625,857.23Z"/><rect class="cls-9" x="1375" y="303" width="305" height="252" rx="13.45"/><path class="cls-3" d="M1680,344.5V316.45A13.45,13.45,0,0,0,1666.55,303h-278.1A13.45,13.45,0,0,0,1375,316.45V344.5Z"/><line class="cls-10" x1="1649.5" y1="314.5" x2="1666.5" y2="331.5"/><line class="cls-10" x1="1649.5" y1="331.5" x2="1666.5" y2="314.5"/><rect class="cls-10" x="1609.5" y="314.5" width="21" height="18"/><line class="cls-10" x1="1568.5" y1="322.5" x2="1591.5" y2="322.5"/><circle class="cls-11" cx="1527.5" cy="449.5" r="73"/><polyline class="cls-12" points="1489 456 1505 475 1566 424"/><path class="cls-4" d="M1252.5,160c-53.85,0-97.5,31.79-97.5,71,0,31.18,27.6,57.66,66,67.21-.72,9.54-29,22.79-29,22.79,30.38,0,45.29-10.83,52.29-19.25,2.71.16,5.44.25,8.21.25,53.85,0,97.5-31.79,97.5-71S1306.35,160,1252.5,160Z"/><circle class="cls-1" cx="1217.5" cy="229.5" r="11.5"/><circle class="cls-1" cx="1254.5" cy="229.5" r="11.5"/><circle class="cls-1" cx="1291.5" cy="229.5" r="11.5"/><path class="cls-13" d="M1226.5,519.5c-4-11-5-70.19-23-96.1a102,102,0,0,0-175.68-14.23h0s-22.32,23.33-27.32,58.33-36,68-36,68-41,42-5,107c0,0,20,52,8,92h261s47-66,47-106S1230.5,530.5,1226.5,519.5Z"/><path class="cls-3" d="M1225.79,700.5a179.46,179.46,0,0,0-236.86.25c-11.17,8-106.7,81.18-102.93,241.25,4.22,5.9,6.3,19.63,88.41,24.38l.09.12,3.58.09c14.46.77,31.29,1.27,50.92,1.41l0-.18L1201.46,972v.08c135.69-9.22,136.6-27.31,141.16-34.6C1336.63,775.89,1235.7,706.89,1225.79,700.5Z"/><path class="cls-9" d="M1182.5,483.5a21.09,21.09,0,0,0-6.24.94c-11.17-37.1-36.19-62.94-65.26-62.94s-54.09,25.84-65.26,62.94a21,21,0,1,0-6.24,41.06h0c0,.83,0,1.66,0,2.5,0,46,19.58,85.19,47,100.09a97.92,97.92,0,0,1,1,19.41c-1,13-14,21-14,21s11,19,38,19,38-19,38-19-18-6-18-21a100.28,100.28,0,0,1,1.94-18.36c28.5-14,49.06-54,49.06-101.14,0-.84,0-1.67,0-2.5h0a21,21,0,0,0,0-42Z"/><path class="cls-14" d="M1118.5,496.5s-7,35,9,64c0,0-3,5-22,6"/><circle class="cls-13" cx="1087.5" cy="508.5" r="6.5"/><circle class="cls-13" cx="1143.5" cy="508.5" r="6.5"/><path class="cls-14" d="M1091.93,577.36s8.42,17.15,25.21,9.66"/><circle class="cls-13" cx="1027.5" cy="390.5" r="36.5"/><circle class="cls-13" cx="1191.5" cy="390.5" r="36.5"/><path class="cls-9" d="M1281,886a26.23,26.23,0,0,0-3.06-.89c-19.1-7.24-53.27-7.88-75.47-3.31-31.1,6.4-17.8,71,13.31,64.64a166.59,166.59,0,0,0,32.38-10.78c28.18,7.79,60.19,12.62,64.9-.47C1319.23,918,1310.88,896.74,1281,886Z"/><path class="cls-14" d="M1187,888s-103-14-173-5c0,0,21-45,24-78"/><path class="cls-14" d="M1105.71,635.38s40.06,4.06,56.34-28.75"/><path class="cls-13" d="M1205.5,462c0-16.42-14.26-29.81-32.13-30.47,5.77-3.46,9.13-7.59,9.13-12,0-12.15-25.07-22-56-22-14,0-26.71,2-36.52,5.33.91-9.34-.3-13.33-15.48-13.33-22.92,0-47,30.08-47,53s-17.42,36,5.5,36a28.33,28.33,0,0,0,7.3-1L1039,481s37-1.69,47.27-41.88c15.65,23.15,41.21,40.58,94.73,42.88,2.29.41,5.55-.5,7.5-.5C1207,481.5,1205.5,478.84,1205.5,462Z"/></svg>