<svg xmlns="http://www.w3.org/2000/svg" viewBox="0 0 330.63 548"><defs><style>.cls-1{fill:#fe6d73;}.cls-2{fill:#ffcb77;}.cls-3{fill:#18c3b2;}.cls-4{fill:#227c9d;}</style></defs><g id="Layer_2" data-name="Layer 2"><path class="cls-1" d="M175.69,34.25S188.54,0,231.35,0s47.09,37.1,47.81,47.81-.72,43.52-45,87.76c0,0-44.24,37.11-35.68,64.22s37.11,50,34.25,62.79-5.7,109.89-5.7,109.89H147.15S132.88,226.91,130,214.06s-26.4-27.83-12.13-56.37,35-19.26,47.1-25.68,17.12-12.85,15.7-34.25S166.42,53.52,175.69,34.25Z"/><path class="cls-2" d="M205.66,382.46S180,358.2,190,281.14c0,0,2.14-35,35-46.38,0,0,18.55-4.29,24.26-31.4,0,0,8.56-50,52.8-42.81s25,50.66,21.4,57.08S310.55,231.9,280.58,249s-26.4,43.52-25.69,49.94,10,20,8.57,41.39-7.14,32.82-7.14,32.82Z"/><path class="cls-3" d="M.16,195.51s-4.28,30,31.4,41.39,33.53,9.27,45,15S100.77,269,97.92,296.12s5.7,54.23,24.26,71.35,28.54,15.7,28.54,15.7,22.83-71.35,21.4-104.18-11.41-67.07-61.36-69.92-49.24-33.54-61.37-42.81C45.83,162.69,6.58,146.28.16,195.51Z"/><path class="cls-4" d="M288.43,355.09a9.74,9.74,0,0,0-9.73-9.74H95.52a9.73,9.73,0,0,0-9.73,9.74V459.78a9.55,9.55,0,0,0,.47,3,61.32,61.32,0,0,0-.47,7.45c0,43,45.36,77.78,101.32,77.78s101.32-34.82,101.32-77.78a61.32,61.32,0,0,0-.47-7.45,9.85,9.85,0,0,0,.47-3Z"/></g></svg>